<svg width="49" height="48" viewBox="0 0 49 48" fill="none" xmlns="http://www.w3.org/2000/svg">
<path d="M24.3398 19H28.3398V13H34.3398V9H28.3398V3H24.3398V9H18.3398V13H24.3398V19ZM16.3398 37C14.1398 37 12.3598 38.8 12.3598 41C12.3598 43.2 14.1398 45 16.3398 45C18.5398 45 20.3398 43.2 20.3398 41C20.3398 38.8 18.5398 37 16.3398 37ZM36.3398 37C34.1398 37 32.3598 38.8 32.3598 41C32.3598 43.2 34.1398 45 36.3398 45C38.5398 45 40.3398 43.2 40.3398 41C40.3398 38.8 38.5398 37 36.3398 37ZM18.5398 27H33.4398C34.9398 27 36.2598 26.18 36.9398 24.94L44.6598 10.92L41.1798 9L33.4398 23H19.3998L10.8798 5H4.33984V9H8.33984L15.5398 24.18L12.8398 29.06C11.3798 31.74 13.2998 35 16.3398 35H40.3398V31H16.3398L18.5398 27Z" fill="#BDC4CA"/>
</svg>
