<svg width="32" height="33" viewBox="0 0 32 33" fill="none" xmlns="http://www.w3.org/2000/svg">
<path d="M8.89473 5.84863C6.73722 5.84863 5 7.58585 5 9.74336V23.2839C5 25.4414 6.73722 27.1787 8.89473 27.1787H16.2336V18.8399H14.0286V15.8377H16.2336V13.2728C16.2336 11.2577 17.5364 9.40742 20.5376 9.40742C21.7527 9.40742 22.6513 9.52407 22.6513 9.52407L22.5806 12.3276C22.5806 12.3276 21.6642 12.319 20.6642 12.319C19.582 12.319 19.4084 12.8176 19.4084 13.6455V15.8378H22.6666L22.5246 18.84H19.4084V27.1787H22.4353C24.5928 27.1787 26.33 25.4415 26.33 23.2839V9.74338C26.33 7.58588 24.5928 5.84865 22.4353 5.84865H8.89471L8.89473 5.84863Z" fill="#BDC4CA"/>
</svg>
