<svg width="16" height="16" viewBox="0 0 16 16" fill="none" xmlns="http://www.w3.org/2000/svg">
<path d="M10.651 9.64771H10.1244L9.93771 9.46771C10.7377 8.53437 11.151 7.26104 10.9244 5.90771C10.611 4.05437 9.06437 2.57437 7.19771 2.34771C4.37771 2.00104 2.00437 4.37437 2.35104 7.19437C2.57771 9.06104 4.05771 10.6077 5.91104 10.921C7.26438 11.1477 8.53771 10.7344 9.47104 9.93437L9.65104 10.121V10.6477L12.4844 13.481C12.7577 13.7544 13.2044 13.7544 13.4777 13.481C13.751 13.2077 13.751 12.761 13.4777 12.4877L10.651 9.64771ZM6.65104 9.64771C4.99104 9.64771 3.65104 8.30771 3.65104 6.64771C3.65104 4.98771 4.99104 3.64771 6.65104 3.64771C8.31104 3.64771 9.65104 4.98771 9.65104 6.64771C9.65104 8.30771 8.31104 9.64771 6.65104 9.64771Z" fill="#8A9197"/>
</svg>
