<svg width="80" height="80" viewBox="0 0 80 80" fill="none" xmlns="http://www.w3.org/2000/svg">
<path d="M39.9998 6.66667C21.5998 6.66667 6.6665 21.6 6.6665 40C6.6665 58.4 21.5998 73.3333 39.9998 73.3333C58.3998 73.3333 73.3332 58.4 73.3332 40C73.3332 21.6 58.3998 6.66667 39.9998 6.66667ZM39.9998 56.6667C38.1665 56.6667 36.6665 55.1667 36.6665 53.3333V40C36.6665 38.1667 38.1665 36.6667 39.9998 36.6667C41.8332 36.6667 43.3332 38.1667 43.3332 40V53.3333C43.3332 55.1667 41.8332 56.6667 39.9998 56.6667ZM43.3332 30H36.6665V23.3333H43.3332V30Z" fill="#0DCAF0"/>
</svg>
