<svg width="32" height="33" viewBox="0 0 32 33" fill="none" xmlns="http://www.w3.org/2000/svg">
<path fill-rule="evenodd" clip-rule="evenodd" d="M25.765 9.52998C26.0814 10.3695 26.2494 11.2577 26.2613 12.1548C26.3273 13.2831 26.3276 13.6521 26.33 16.5082L26.33 16.548C26.33 19.4417 26.3146 19.8029 26.2637 20.9424C26.2459 21.8296 26.0789 22.7037 25.7674 23.5328C25.4927 24.2408 25.0735 24.8837 24.5365 25.4207C23.9996 25.9576 23.3566 26.3768 22.6487 26.6515C21.82 26.9626 20.9444 27.1304 20.0594 27.1478C18.9282 27.2142 18.5575 27.2142 15.665 27.2142C12.7725 27.2142 12.4113 27.1988 11.2706 27.1478C10.3839 27.1187 9.50862 26.9384 8.68253 26.6148C7.97429 26.3407 7.33102 25.9219 6.79381 25.3851C6.2566 24.8483 5.83728 24.2053 5.56262 23.4973C5.25111 22.667 5.0841 21.7928 5.06633 20.9068C5 19.7745 5 19.4049 5 16.5124C5 13.62 5.0154 13.2587 5.06633 12.1181C5.08306 11.2334 5.25091 10.3581 5.56262 9.52998C5.83682 8.82173 6.25583 8.17852 6.79286 7.64149C7.32988 7.10446 7.9731 6.68545 8.68134 6.41126C9.5097 6.1003 10.3848 5.93208 11.2694 5.91378C12.4006 5.84863 12.7713 5.84863 15.6638 5.84863C18.5563 5.84863 18.9176 5.86285 20.057 5.91378C20.942 5.93195 21.8176 6.10016 22.6463 6.41126C23.3544 6.68564 23.9975 7.10472 24.5345 7.64173C25.0715 8.17873 25.4906 8.82184 25.765 9.52998ZM10.1809 16.5065C10.1809 19.5317 12.6316 21.9823 15.6567 21.9823C17.109 21.9823 18.5018 21.4054 19.5287 20.3785C20.5556 19.3516 21.1325 17.9588 21.1325 16.5065C21.1325 15.0542 20.5556 13.6615 19.5287 12.6345C18.5018 11.6076 17.109 11.0307 15.6567 11.0307C12.6316 11.0307 10.1809 13.4814 10.1809 16.5065ZM20.8617 12.0081C21.0166 12.0723 21.1828 12.1052 21.3505 12.105C22.0552 12.105 22.6262 11.5341 22.6262 10.8282C22.6262 10.6606 22.5931 10.4946 22.529 10.3398C22.4649 10.1849 22.3709 10.0442 22.2523 9.9257C22.1338 9.80719 21.9931 9.71318 21.8383 9.64904C21.6834 9.5849 21.5175 9.55189 21.3499 9.55189C21.1823 9.55189 21.0163 9.5849 20.8615 9.64904C20.7066 9.71318 20.5659 9.80719 20.4474 9.9257C20.3289 10.0442 20.2349 10.1849 20.1708 10.3398C20.1066 10.4946 20.0736 10.6606 20.0736 10.8282C20.0735 10.9959 20.1064 11.162 20.1705 11.317C20.2346 11.472 20.3287 11.6128 20.4472 11.7314C20.5658 11.85 20.7067 11.944 20.8617 12.0081ZM19.2136 16.5066C19.2136 18.4711 17.6211 20.0636 15.6567 20.0636C13.6922 20.0636 12.0997 18.4711 12.0997 16.5066C12.0997 14.5421 13.6922 12.9496 15.6567 12.9496C17.6211 12.9496 19.2136 14.5421 19.2136 16.5066Z" fill="#BDC4CA"/>
</svg>
