<svg width="16" height="17" viewBox="0 0 16 17" fill="none" xmlns="http://www.w3.org/2000/svg">
<path d="M14.2733 8.21993L8.27325 2.21808C8.03325 1.97801 7.69992 1.8313 7.33325 1.8313H2.66659C1.93325 1.8313 1.33325 2.43148 1.33325 3.16504V7.83315C1.33325 8.19993 1.47992 8.53336 1.72659 8.78011L7.72659 14.782C7.96659 15.022 8.29992 15.1687 8.66659 15.1687C9.03325 15.1687 9.36659 15.022 9.60659 14.7753L14.2733 10.1072C14.5199 9.86711 14.6666 9.53367 14.6666 9.16689C14.6666 8.80011 14.5133 8.46001 14.2733 8.21993ZM8.66659 13.8417L2.66659 7.83315V3.16504H7.33325V3.15837L13.3333 9.16022L8.66659 13.8417Z" fill="#0D6EFD"/>
<path d="M4.33325 5.83253C4.88554 5.83253 5.33325 5.38468 5.33325 4.83222C5.33325 4.27977 4.88554 3.83192 4.33325 3.83192C3.78097 3.83192 3.33325 4.27977 3.33325 4.83222C3.33325 5.38468 3.78097 5.83253 4.33325 5.83253Z" fill="#0D6EFD"/>
</svg>
