<svg width="16" height="16" viewBox="0 0 16 16" fill="none" xmlns="http://www.w3.org/2000/svg">
<path d="M12 5.66667H11.3333V4.33333C11.3333 2.49333 9.84 1 8 1C6.16 1 4.66667 2.49333 4.66667 4.33333V5.66667H4.00001C3.26667 5.66667 2.66667 6.26667 2.66667 7V13.6667C2.66667 14.4 3.26667 15 4.00001 15H12C12.7333 15 13.3333 14.4 13.3333 13.6667V7C13.3333 6.26667 12.7333 5.66667 12 5.66667ZM6 4.33333C6 3.22667 6.89334 2.33333 8 2.33333C9.10667 2.33333 10 3.22667 10 4.33333V5.66667H6V4.33333ZM12 13.6667H4.00001V7H12V13.6667ZM8 11.6667C8.73334 11.6667 9.33334 11.0667 9.33334 10.3333C9.33334 9.6 8.73334 9 8 9C7.26667 9 6.66667 9.6 6.66667 10.3333C6.66667 11.0667 7.26667 11.6667 8 11.6667Z" fill="#8A9197"/>
</svg>
