<svg width="16" height="16" viewBox="0 0 16 16" fill="none" xmlns="http://www.w3.org/2000/svg">
<path d="M8.00002 4.31339C9.84002 4.31339 11.3334 5.80672 11.3334 7.64672C11.3334 7.98672 11.2667 8.31339 11.1734 8.62006L13.2134 10.6601C14.14 9.84006 14.8734 8.81339 15.3334 7.64006C14.18 4.72006 11.3334 2.64672 8.00002 2.64672C7.15335 2.64672 6.34002 2.78006 5.57335 3.02672L7.02002 4.47339C7.33335 4.38006 7.66002 4.31339 8.00002 4.31339ZM1.80669 2.08672C1.54669 2.34672 1.54669 2.76672 1.80669 3.02672L3.12002 4.34006C2.04002 5.20006 1.18002 6.33339 0.666687 7.64672C1.82002 10.5734 4.66669 12.6467 8.00002 12.6467C9.01335 12.6467 9.98002 12.4467 10.8734 12.1001L12.6867 13.9134C12.9467 14.1734 13.3667 14.1734 13.6267 13.9134C13.8867 13.6534 13.8867 13.2334 13.6267 12.9734L2.75335 2.08672C2.49335 1.82672 2.06669 1.82672 1.80669 2.08672ZM8.00002 10.9801C6.16002 10.9801 4.66669 9.48672 4.66669 7.64672C4.66669 7.13339 4.78669 6.64672 4.99335 6.22006L6.04002 7.26672C6.02002 7.38672 6.00002 7.51339 6.00002 7.64672C6.00002 8.75339 6.89335 9.64672 8.00002 9.64672C8.13335 9.64672 8.25335 9.62672 8.38002 9.60006L9.42669 10.6467C8.99335 10.8601 8.51335 10.9801 8.00002 10.9801ZM9.98002 7.42672C9.88002 6.49339 9.14669 5.76672 8.22002 5.66672L9.98002 7.42672Z" fill="#8A9197"/>
</svg>
