<svg width="16" height="17" viewBox="0 0 16 17" fill="none" xmlns="http://www.w3.org/2000/svg">
<path d="M7.99325 1.8313C4.31325 1.8313 1.33325 4.81889 1.33325 8.50002C1.33325 12.1812 4.31325 15.1687 7.99325 15.1687C11.6799 15.1687 14.6666 12.1812 14.6666 8.50002C14.6666 4.81889 11.6799 1.8313 7.99325 1.8313ZM7.99992 13.835C5.05325 13.835 2.66659 11.4476 2.66659 8.50002C2.66659 5.55245 5.05325 3.16504 7.99992 3.16504C10.9466 3.16504 13.3333 5.55245 13.3333 8.50002C13.3333 11.4476 10.9466 13.835 7.99992 13.835ZM8.33325 5.16566H7.33325V9.16689L10.8333 11.2675L11.3333 10.4473L8.33325 8.66674V5.16566Z" fill="#0D6EFD"/>
</svg>
