<svg width="17" height="16" viewBox="0 0 17 16" fill="none" xmlns="http://www.w3.org/2000/svg">
<path d="M11.5308 8.66665C12.0308 8.66665 12.4708 8.39331 12.6975 7.97998L15.0841 3.65331C15.3308 3.21331 15.0108 2.66665 14.5041 2.66665H4.63748L4.01081 1.33331H1.83081V2.66665H3.16414L5.56414 7.72665L4.66414 9.35331C4.17748 10.2466 4.81748 11.3333 5.83081 11.3333H13.8308V9.99998H5.83081L6.56414 8.66665H11.5308ZM5.27081 3.99998H13.3708L11.5308 7.33331H6.85081L5.27081 3.99998ZM5.83081 12C5.09748 12 4.50414 12.6 4.50414 13.3333C4.50414 14.0666 5.09748 14.6666 5.83081 14.6666C6.56414 14.6666 7.16414 14.0666 7.16414 13.3333C7.16414 12.6 6.56414 12 5.83081 12ZM12.4975 12C11.7641 12 11.1708 12.6 11.1708 13.3333C11.1708 14.0666 11.7641 14.6666 12.4975 14.6666C13.2308 14.6666 13.8308 14.0666 13.8308 13.3333C13.8308 12.6 13.2308 12 12.4975 12Z" fill="#6F42C1"/>
</svg>
