<svg width="32" height="33" viewBox="0 0 32 33" fill="none" xmlns="http://www.w3.org/2000/svg">
<path d="M21.7414 9.19033C21.7414 9.19033 22.3458 9.78283 21.7414 9.19033C20.9314 8.26558 20.485 7.07799 20.4853 5.84863H16.8237V20.5426C16.7954 21.3378 16.4597 22.091 15.8872 22.6436C15.3147 23.1961 14.5502 23.505 13.7545 23.5051C12.0718 23.5051 10.6735 22.1305 10.6735 20.4241C10.6735 18.3859 12.6406 16.8573 14.667 17.4853V13.7407C10.5787 13.1956 7 16.3714 7 20.4241C7 24.3702 10.2706 27.1786 13.7427 27.1786C17.4636 27.1786 20.4853 24.1569 20.4853 20.4241V12.9705C21.9701 14.0368 23.7528 14.6089 25.5808 14.6058V10.9441C25.5808 10.9441 23.353 11.0508 21.7414 9.19033Z" fill="#BDC4CA"/>
</svg>
