<svg width="32" height="33" viewBox="0 0 32 33" fill="none" xmlns="http://www.w3.org/2000/svg">
<path d="M15.7337 9.84863H15.8523C16.9482 9.85263 22.501 9.89263 23.9982 10.2953C24.4508 10.4181 24.8633 10.6577 25.1943 10.9899C25.5254 11.3221 25.7634 11.7354 25.8847 12.1884C26.0194 12.695 26.114 13.3656 26.178 14.0576L26.1913 14.1962L26.2207 14.5429L26.2313 14.6815C26.318 15.9001 26.3287 17.0413 26.33 17.2906V17.3906C26.3287 17.6492 26.3167 18.8678 26.2207 20.137L26.21 20.277L26.198 20.4156C26.1314 21.1782 26.0327 21.9355 25.8847 22.4928C25.7638 22.946 25.5259 23.3595 25.1948 23.6918C24.8637 24.024 24.451 24.2634 23.9982 24.3859C22.4517 24.8019 16.5736 24.8312 15.759 24.8326H15.5697C15.1577 24.8326 13.4539 24.8246 11.6674 24.7632L11.4407 24.7552L11.3247 24.7499L11.0968 24.7406L10.8688 24.7312C9.38892 24.6659 7.97972 24.5606 7.33045 24.3846C6.87781 24.2622 6.46528 24.023 6.13419 23.691C5.8031 23.359 5.56508 22.9458 5.44396 22.4928C5.29597 21.9368 5.19731 21.1782 5.13065 20.4156L5.11999 20.2757L5.10932 20.137C5.04353 19.2336 5.00707 18.3283 5 17.4226L5 17.2586C5.00267 16.972 5.01333 15.9814 5.08533 14.8882L5.09466 14.7508L5.09866 14.6815L5.10932 14.5429L5.13865 14.1962L5.15199 14.0576C5.21598 13.3656 5.31064 12.6937 5.44529 12.1884C5.56621 11.7352 5.80414 11.3217 6.13524 10.9894C6.46635 10.6572 6.87898 10.4178 7.33178 10.2953C7.98105 10.1219 9.39025 10.0153 10.8701 9.94862L11.0968 9.93929L11.3261 9.93129L11.4407 9.92729L11.6687 9.91796C12.9375 9.87713 14.2069 9.85446 15.4764 9.84997H15.7337V9.84863ZM13.5325 14.1282V20.5516L19.0747 17.3413L13.5325 14.1282Z" fill="#BDC4CA"/>
</svg>
