<svg width="180" height="181" viewBox="0 0 180 181" fill="none" xmlns="http://www.w3.org/2000/svg">
<path d="M165 90.186C165 81.936 158.25 75.186 150 75.186V52.686C150 44.436 143.25 37.686 135 37.686H45C36.75 37.686 30 44.436 30 52.686V75.186C21.75 75.186 15 81.936 15 90.186V127.686H24.975L30 142.686H37.5L42.525 127.686H137.55L142.5 142.686H150L155.025 127.686H165V90.186ZM135 75.186H97.5V52.686H135V75.186ZM45 52.686H82.5V75.186H45V52.686ZM30 90.186H150V112.686H30V90.186Z" fill="#232426"/>
</svg>
