<svg width="180" height="181" viewBox="0 0 180 181" fill="none" xmlns="http://www.w3.org/2000/svg">
<path d="M142.5 37.686H37.5C20.925 37.686 7.5 51.111 7.5 67.686V105.186C7.5 121.761 20.925 135.186 37.5 135.186H52.5V142.686H127.5V135.186H142.5C159.075 135.186 172.5 121.761 172.5 105.186V67.686C172.5 51.111 159.075 37.686 142.5 37.686ZM157.5 105.186C157.5 113.436 150.75 120.186 142.5 120.186H37.5C29.25 120.186 22.5 113.436 22.5 105.186V67.686C22.5 59.436 29.25 52.686 37.5 52.686H142.5C150.75 52.686 157.5 59.436 157.5 67.686V105.186Z" fill="#232426"/>
</svg>
