<svg width="180" height="181" viewBox="0 0 180 181" fill="none" xmlns="http://www.w3.org/2000/svg">
<path d="M33.75 86.4194C44.1053 86.4194 52.5 78.0248 52.5 67.6694C52.5 57.3141 44.1053 48.9194 33.75 48.9194C23.3947 48.9194 15 57.3141 15 67.6694C15 78.0248 23.3947 86.4194 33.75 86.4194Z" fill="#232426"/>
<path d="M67.5 56.4194C77.8553 56.4194 86.25 48.0248 86.25 37.6694C86.25 27.3141 77.8553 18.9194 67.5 18.9194C57.1447 18.9194 48.75 27.3141 48.75 37.6694C48.75 48.0248 57.1447 56.4194 67.5 56.4194Z" fill="#232426"/>
<path d="M112.5 56.4194C122.855 56.4194 131.25 48.0248 131.25 37.6694C131.25 27.3141 122.855 18.9194 112.5 18.9194C102.145 18.9194 93.75 27.3141 93.75 37.6694C93.75 48.0248 102.145 56.4194 112.5 56.4194Z" fill="#232426"/>
<path d="M146.25 86.4194C156.605 86.4194 165 78.0248 165 67.6694C165 57.3141 156.605 48.9194 146.25 48.9194C135.895 48.9194 127.5 57.3141 127.5 67.6694C127.5 78.0248 135.895 86.4194 146.25 86.4194Z" fill="#232426"/>
<path d="M130.05 107.869C123.525 100.219 118.05 93.6944 111.45 86.0444C108 81.9944 103.575 77.9444 98.325 76.1444C97.5 75.8444 96.675 75.6194 95.85 75.4694C93.975 75.1694 91.95 75.1694 90 75.1694C88.05 75.1694 86.025 75.1694 84.075 75.5444C83.25 75.6944 82.425 75.9194 81.6 76.2194C76.35 78.0194 72 82.0694 68.475 86.1194C61.95 93.7694 56.475 100.294 49.875 107.944C40.05 117.769 27.975 128.644 30.225 143.869C32.4 151.519 37.875 159.094 47.7 161.269C53.175 162.394 70.65 157.969 89.25 157.969H90.6C109.2 157.969 126.675 162.319 132.15 161.269C141.975 159.094 147.45 151.444 149.625 143.869C151.95 128.569 139.875 117.694 130.05 107.869Z" fill="#232426"/>
</svg>
