<svg width="180" height="181" viewBox="0 0 180 181" fill="none" xmlns="http://www.w3.org/2000/svg">
<path d="M116.175 72.411C114.825 51.486 106.35 31.086 90.45 15.186C74.4 31.236 65.55 51.636 63.825 72.411C73.425 77.511 82.275 84.111 90 92.136C97.725 84.186 106.575 77.586 116.175 72.411ZM90.375 39.111C95.1 46.836 98.4 55.461 100.125 64.461C96.6 66.711 93.3 69.186 90.075 71.811C86.925 69.261 83.55 66.786 80.1 64.536C81.975 55.536 85.425 46.911 90.375 39.111ZM90 116.061C83.85 106.686 76.05 98.511 67.05 92.061C66.075 91.386 65.025 90.861 64.05 90.111C65.025 90.786 66.075 91.386 66.975 91.986C52.35 81.411 34.425 75.186 15 75.186C15 115.086 40.2 148.836 75.225 161.361C79.95 163.086 84.9 164.361 90 165.186C95.1 164.286 99.975 163.011 104.775 161.361C139.8 148.836 165 115.086 165 75.186C133.65 75.186 106.125 91.461 90 116.061ZM99.9 147.186C96.6 148.311 93.3 149.211 89.925 149.961C86.625 149.286 83.4 148.386 80.325 147.261C55.65 138.411 37.575 117.336 31.95 92.136C40.2 94.086 48.075 97.461 55.35 102.111L55.2 102.186C56.175 102.861 57.15 103.536 58.125 104.061L58.65 104.361C66.075 109.761 72.45 116.436 77.475 124.236L90 143.436L102.525 124.311C107.7 116.436 114.15 109.686 121.5 104.361L122.025 103.986C122.7 103.611 123.375 103.161 124.05 102.711L123.975 102.561C131.325 97.686 139.5 94.086 148.05 92.061C142.425 117.336 124.425 138.411 99.9 147.186ZM67.425 92.286C67.275 92.211 67.125 92.061 67.05 91.986C67.05 91.986 67.125 91.986 67.125 92.061C67.2 92.136 67.275 92.211 67.425 92.286Z" fill="#232426"/>
</svg>
