<svg width="180" height="181" viewBox="0 0 180 181" fill="none" xmlns="http://www.w3.org/2000/svg">
<path d="M150 60.186H127.5V45.186C127.5 36.936 120.75 30.186 112.5 30.186H67.5C59.25 30.186 52.5 36.936 52.5 45.186V60.186H30C21.75 60.186 15 66.936 15 75.186V150.186H165V75.186C165 66.936 158.25 60.186 150 60.186ZM67.5 45.186H112.5V60.186H67.5V45.186ZM150 135.186H30V112.686H45V120.186H60V112.686H120V120.186H135V112.686H150V135.186ZM135 97.686V90.186H120V97.686H60V90.186H45V97.686H30V75.186H150V97.686H135Z" fill="#232426"/>
</svg>
