<svg width="180" height="181" viewBox="0 0 180 181" fill="none" xmlns="http://www.w3.org/2000/svg">
<path d="M144.384 75.786L134.259 45.561C131.259 36.336 122.634 30.186 112.959 30.186H74.5595C64.8845 30.186 56.2595 36.336 53.2595 45.561L47.3345 63.186L36.8345 52.686L39.0095 50.511C41.9345 47.586 41.9345 42.861 39.0095 39.936C36.0845 37.011 31.3595 37.011 28.4345 39.936L13.4345 54.936C10.5095 57.861 10.5095 62.586 13.4345 65.511C16.3595 68.436 21.0845 68.436 24.0095 65.511L26.2595 63.261L39.6845 76.686C27.6095 80.586 18.7595 91.836 18.7595 105.186C18.7595 116.361 24.9845 126.036 34.1345 131.211C35.7845 141.936 45.0845 150.186 56.2595 150.186C66.0095 150.186 74.2595 143.886 77.4095 135.186H110.184C113.259 143.886 121.509 150.186 131.334 150.186C142.509 150.186 151.809 141.936 153.459 131.211C162.534 126.036 168.759 116.361 168.759 105.186C168.759 90.561 158.259 78.411 144.384 75.786ZM101.259 45.186H112.959C116.184 45.186 119.034 47.211 120.084 50.286L128.334 75.186H101.259V45.186ZM67.4345 50.286C68.4845 47.211 71.3345 45.186 74.5595 45.186H86.2595V75.186H59.3345L59.1845 75.036L67.4345 50.286ZM56.2595 135.186C52.1345 135.186 48.7595 131.811 48.7595 127.686C48.7595 123.561 52.1345 120.186 56.2595 120.186C60.3845 120.186 63.7595 123.561 63.7595 127.686C63.7595 131.811 60.3845 135.186 56.2595 135.186ZM131.259 135.186C127.134 135.186 123.759 131.811 123.759 127.686C123.759 123.561 127.134 120.186 131.259 120.186C135.384 120.186 138.759 123.561 138.759 127.686C138.759 131.811 135.384 135.186 131.259 135.186ZM149.934 115.086C145.884 109.161 138.984 105.186 131.259 105.186C121.509 105.186 113.259 111.486 110.109 120.186H77.4095C74.2595 111.486 66.0095 105.186 56.2595 105.186C48.5345 105.186 41.6345 109.161 37.5845 115.086C35.2595 112.461 33.7595 109.011 33.7595 105.186C33.7595 96.936 40.5095 90.186 48.7595 90.186H138.759C147.009 90.186 153.759 96.936 153.759 105.186C153.759 109.011 152.259 112.461 149.934 115.086Z" fill="#232426"/>
</svg>
